<svg version="1.2" xmlns="http://www.w3.org/2000/svg" viewBox="0 0 478 455" width="478" height="455">
	<title>undraw_pay_online_re_aqe6-svg</title>
	<style>
		.s0 { fill: #f2f2f2 } 
		.s1 { fill: #ffffff } 
		.s2 { fill: #a0616a } 
		.s3 { fill: #2f2e41 } 
		.s4 { fill: #e6e6e6 } 
		.s5 { fill: #3f3d56 } 
		.s6 { fill: #9b4a1b } 
	</style>
	<path id="Layer" class="s0" d="m0.4 61.6c0-14.8 12-26.8 26.8-26.8h226.9c14.8 0 26.8 12 26.8 26.8v224.1c0 14.8-12 26.7-26.8 26.7h-226.9c-14.8 0-26.8-11.9-26.8-26.7z"/>
	<path id="Layer" class="s1" d="m254.1 40.3c2.8 0 5.6 0.6 8.2 1.7 2.6 1 4.9 2.6 6.9 4.6 1.9 1.9 3.5 4.3 4.6 6.9 1 2.5 1.6 5.3 1.6 8.1v142c0 13.5-2.7 27-7.9 39.5-5.2 12.6-12.8 24-22.4 33.6-9.6 9.6-21 17.2-33.5 22.4-12.6 5.2-26 7.8-39.6 7.8h-144.8c-2.8 0-5.6-0.5-8.2-1.6-2.6-1-4.9-2.6-6.9-4.6-1.9-2-3.5-4.3-4.6-6.9-1-2.6-1.6-5.3-1.6-8.1v-176.4c0-9.1 1.8-18 5.3-26.4 3.4-8.4 8.5-16 14.9-22.4 6.4-6.4 14-11.4 22.3-14.9 8.4-3.5 17.4-5.3 26.4-5.3z"/>
	<filter id="f0">
		<feFlood flood-color="#9b4a1b" flood-opacity="1" />
		<feBlend mode="normal" in2="SourceGraphic"/>
		<feComposite in2="SourceAlpha" operator="in" />
	</filter>
	<g id="Folder 1" filter="url(#f0)">
		<path id="Layer" class="s0" d="m175.3 212.4h-152c-0.9 0-1.7-0.4-2.3-1-0.7-0.6-1-1.4-1-2.3 0-0.9 0.3-1.7 1-2.4 0.6-0.6 1.4-0.9 2.3-0.9h152c0.9 0 1.7 0.3 2.3 0.9 0.6 0.7 1 1.5 1 2.4 0 0.9-0.4 1.7-1 2.3-0.6 0.6-1.4 1-2.3 1z"/>
		<path id="Layer" class="s0" d="m176.4 117.7h-154.2c-0.6 0-1.1-0.4-1.6-1-0.4-0.6-0.6-1.5-0.6-2.3 0-0.9 0.2-1.8 0.6-2.4 0.5-0.6 1-1 1.6-1h154.2c0.6 0 1.1 0.4 1.5 1 0.5 0.6 0.7 1.5 0.7 2.4 0 0.8-0.2 1.7-0.7 2.3-0.4 0.6-0.9 1-1.5 1z"/>
		<path id="Layer" class="s0" d="m177.9 142.4c0.5 0.6 0.7 1.4 0.7 2.3 0 0.9-0.2 1.7-0.7 2.4-0.4 0.6-0.9 0.9-1.5 0.9h-154.2c-0.6 0-1.1-0.3-1.6-0.9-0.4-0.7-0.6-1.5-0.6-2.4 0-0.9 0.2-1.7 0.6-2.3 0.5-0.7 1-1 1.6-1h154.2c0.6 0 1.1 0.3 1.5 1z"/>
		<path id="Layer" class="s0" d="m176.4 178.4h-154.2c-0.6 0-1.1-0.4-1.5-1-0.5-0.6-0.7-1.4-0.7-2.3 0-0.9 0.2-1.7 0.7-2.4 0.4-0.6 0.9-0.9 1.5-0.9h154.2c0.6 0 1.1 0.3 1.5 0.9 0.5 0.7 0.7 1.5 0.7 2.4 0 0.9-0.2 1.7-0.7 2.3-0.4 0.6-0.9 1-1.5 1z"/>
	</g>
	<path id="Layer" class="s2" d="m370.6 443.7h-10.7l-5-41.1h15.7v41.1z"/>
	<path id="Layer" class="s3" d="m371 454.8h-32.8v-0.4c0-1.7 0.3-3.3 1-4.9 0.6-1.5 1.6-2.9 2.7-4.1 1.2-1.2 2.6-2.1 4.2-2.8 1.5-0.6 3.2-0.9 4.9-0.9l5.9-4.6 11.2 4.6h2.9z"/>
	<path id="Layer" class="s2" d="m477.7 443.7h-10.6l-5.1-41.1h15.7v41.1z"/>
	<path id="Layer" class="s3" d="m478.1 454.8h-32.7v-0.4c0-1.7 0.3-3.3 0.9-4.9 0.7-1.5 1.6-2.9 2.8-4.1 1.2-1.2 2.6-2.1 4.1-2.8 1.6-0.6 3.2-0.9 4.9-0.9l6-4.6 11.1 4.6h2.9z"/>
	<path id="Layer" class="s3" d="m450.7 203.2l13.1 46.1c0 0-4.6 1.7-4.6 8.3 0 6.6 0 0 3.9-0.1 3.9-0.2 0 50.8 0 50.8 17 16.5 15 111.8 15 111.8l-15.3 1.5-10.2-10.2c-2.2-2.2 0 0 0-2.2 0-2.2 0 0-1.7-1.5-1.7-1.6-43.8-133.3-43.8-133.3l-22.3 49.5c8 15.7 1.1 50.8-13.8 96.2h-16.1l-7.3-122.6 12.7-52.4c0 0 7.7-5.7 7.7-11.6 0-5.8 0 0 3.7-8.7 3.6-8.7 0 0 0.3-4.8 0.3-4.8 7.3-12.3 7.3-12.3z"/>
	<path id="Layer" class="s4" d="m461.9 106.2l-14.8 62 3.5 23.1 4.2 27.7-14.5-1-22.5-1.4-41.7-2.7-3.7-122.5 19.2-20 3.4-9.7 27.6-0.2 6.7 11.7 17 4.8q0.8 0.6 1.6 1.1 0.8 0.6 1.6 1.2 0.7 0.6 1.5 1.2 0.7 0.6 1.4 1.3c4.2 3.9 7.9 8.8 9.7 13.9q0.2 0.5 0.3 1.1 0.2 0.5 0.3 1.1 0.1 0.6 0.2 1.2 0.1 0.6 0.2 1.1z"/>
	<path id="Layer" class="s4" d="m326.9 264.5c-2.1-0.5-3.9-1.7-5.2-3.5-1.2-1.7-1.8-3.9-1.6-6 0.2-2.1 1.2-4.1 2.8-5.6l24.8-45.8 9.2 8.5-21.1 38.4c0.7 1 1.3 2.2 1.6 3.4 0.3 1.2 0.3 2.5 0.1 3.8-0.3 1.2-0.8 2.4-1.6 3.4-0.7 1.1-1.7 1.9-2.8 2.5-1.9 1.1-4.1 1.4-6.2 0.9z"/>
	<path id="Layer" class="s4" d="m384.6 83.9l-4.9 88.2-23.7 55.4-15.5 20.4 1.8-9.3-10.7-5.3-1-0.5 20.5-79.2 1.8-30.8q0.3-4 1.3-7.8 1.1-3.8 2.9-7.4 1.8-3.5 4.3-6.6 2.5-3.1 5.6-5.6l11.8-9.6z"/>
	<path id="Layer" class="s2" d="m326.9 264.5c-2.1-0.5-3.9-1.7-5.2-3.5-1.2-1.7-1.8-3.9-1.6-6 0.2-2.1 1.2-4.1 2.8-5.6l24.8-45.8 9.2 8.5-21.1 38.4c0.7 1 1.3 2.2 1.6 3.4 0.3 1.2 0.3 2.5 0.1 3.8-0.3 1.2-0.8 2.4-1.6 3.4-0.7 1.1-1.7 1.9-2.8 2.5-1.9 1.1-4.1 1.4-6.2 0.9z"/>
	<path id="Layer" class="s4" d="m384.6 83.9l-4.9 88.2-23.7 55.4-15.5 20.4 1.8-9.3-10.7-5.3-1-0.5 20.5-79.2 1.8-30.8q0.3-4 1.3-7.8 1.1-3.8 2.9-7.4 1.8-3.5 4.3-6.6 2.5-3.1 5.6-5.6l11.8-9.6z"/>
	<path id="Layer" class="s1" d="m153.7 113.7c0-14.8 12-26.7 26.7-26.7h227c14.8 0 26.8 11.9 26.8 26.7v117.1c0 14.8-12 26.8-26.8 26.8h-227c-14.7 0-26.7-12-26.7-26.8z"/>
	<path id="Layer" fill-rule="evenodd" class="s5" d="m407.4 258.6h-227c-3.6 0-7.2-0.8-10.6-2.2-3.4-1.4-6.4-3.4-9-6-2.6-2.6-4.6-5.6-6-9-1.4-3.3-2.1-6.9-2.1-10.6v-117.1c0-3.6 0.7-7.2 2.1-10.6 1.4-3.4 3.4-6.4 6-9 2.6-2.6 5.6-4.6 9-6 3.4-1.4 7-2.1 10.6-2.1h227c3.7 0 7.3 0.7 10.6 2.1 3.4 1.4 6.5 3.4 9 6 2.6 2.6 4.6 5.6 6 9 1.4 3.4 2.2 7 2.2 10.6v117.1c0 3.7-0.8 7.3-2.2 10.6-1.4 3.4-3.4 6.4-6 9-2.5 2.6-5.6 4.6-9 6-3.3 1.4-6.9 2.2-10.6 2.2zm-227-170.6c-3.4 0-6.7 0.6-9.8 1.9-3.1 1.3-6 3.2-8.4 5.6-2.4 2.4-4.3 5.2-5.6 8.4-1.3 3.1-1.9 6.4-1.9 9.8v43.8c0 13 2.5 25.9 7.5 37.9 5 12 12.3 22.9 21.5 32.1 9.2 9.2 20.1 16.5 32.1 21.5 12.1 5 24.9 7.6 38 7.6h153.6c3.4 0 6.7-0.7 9.9-2 3.1-1.3 5.9-3.2 8.3-5.6 2.4-2.4 4.3-5.2 5.6-8.3 1.3-3.2 2-6.5 2-9.9v-117.1c0-3.4-0.7-6.7-2-9.8-1.3-3.2-3.2-6-5.6-8.4-2.4-2.4-5.2-4.3-8.3-5.6-3.2-1.3-6.5-1.9-9.9-1.9z"/>
	<path id="Layer" class="s6" d="m183.9 214.8c0-2 1.6-3.5 3.5-3.5h53c2 0 3.5 1.5 3.5 3.5 0 1.9-1.5 3.5-3.5 3.5h-53c-1.9 0-3.5-1.6-3.5-3.5z"/>
	<path id="Layer" class="s6" d="m359.9 205.3c0-2 1.6-3.5 3.5-3.5h37c2 0 3.5 1.5 3.5 3.5v19c0 1.9-1.5 3.5-3.5 3.5h-37c-1.9 0-3.5-1.6-3.5-3.5z"/>
	<path id="Layer" class="s6" d="m201.9 152.8c-9.9 0-18-8.1-18-18 0-10 8.1-18 18-18 10 0 18 8 18 18 0 9.9-8 18-18 18z"/>
	<path id="Layer" class="s2" d="m407.8 56.4c-12.5 0-22.6-10.1-22.6-22.6 0-12.5 10.1-22.6 22.6-22.6 12.5 0 22.6 10.1 22.6 22.6 0 12.5-10.1 22.6-22.6 22.6z"/>
	<path id="Layer" class="s3" d="m426.3 45.5c0.2 1.3-2.2 1.5-2.8 0.2-0.5-1.2 0.2-2.6 0.9-3.8l1.6-2.7q0.5-0.8 0.5-1.7 0.1-0.9-0.3-1.8-0.4-0.8-1.1-1.4-0.7-0.5-1.6-0.7c1.5-3.3-0.1-7.5-3-9.6-3-2.1-7.3 1.9-10.9 2.5-3.6 0.7-6.4-2-9.7-0.4l2-4.5-10.8 4.7 2.5-5.1c-2.8 0.2-3.9 3.5-4.5 6.2-0.5 2.8-2.1 6.4-5.2 5.8q-0.5-0.1-1-0.4-0.5-0.3-0.9-0.7-0.4-0.4-0.7-0.9-0.3-0.5-0.4-1c-2.4-9.2 4.6-19.4 13.8-21 1-2.7 2.8-5 5.2-6.6 2.4-1.6 5.3-2.4 8.2-2.3 2.9 0.1 5.7 1.2 7.9 3 2.2 1.9 3.9 4.4 4.6 7.2l3-3.7 0.6 5.2c2.2-0.2 4.2 1.3 5.3 3.2 1 1.9 0.5 4.4 1.5 6.3 4.6 8.7 3.1 18.5-3.9 25.1"/>
	<path id="Layer" class="s2" d="m411.3 259.4c-2.1-0.4-4-1.6-5.3-3.3-1.4-1.7-2-3.8-1.8-6 0.1-2.1 1-4.1 2.6-5.6l23.1-46.7 9.4 8.1-19.7 39.2c0.8 0.9 1.4 2.1 1.8 3.3 0.3 1.2 0.4 2.5 0.2 3.8-0.2 1.2-0.7 2.4-1.4 3.5-0.7 1-1.7 1.9-2.8 2.6-1.8 1.1-4 1.5-6.1 1.1z"/>
	<path id="Layer" class="s4" d="m462.1 96.7l1 4.5-2.4 63.9-10.1 26.2-10.3 26.7-1.3 3.3-14.7 21 1.4-9.3-10.8-5-1-0.4 3.9-11 9-25.4 3.8-10.9 0.9-32.6 0.8-30.9q0.1-3.9 1-7.8 0.9-3.9 2.6-7.5 1.7-3.6 4.1-6.8 2.4-3.1 5.4-5.8l7-6.1c4.2 3.9 7.9 8.8 9.7 13.9z"/>
	<path id="Layer" class="s6" d="m226.1 256.2l-46.9-1c-2.9 0-5.8-0.5-8.4-1.6-2.7-1.1-5.1-2.8-7.1-4.8-2.1-2-3.7-4.5-4.8-7.1-1.1-2.7-1.7-5.6-1.7-8.5l-2-49c5.8 40 27.9 65.3 70.9 72z"/>
</svg>